<svg width="235" height="25" viewBox="0 0 235 25" fill="none" xmlns="http://www.w3.org/2000/svg">
<path d="M0.295455 24.5V1.22727H9.20455C10.8864 1.22727 12.2841 1.49242 13.3977 2.02273C14.5189 2.54545 15.3561 3.26136 15.9091 4.17045C16.4697 5.07954 16.75 6.10985 16.75 7.26136C16.75 8.20833 16.5682 9.01894 16.2045 9.69318C15.8409 10.3598 15.3523 10.9015 14.7386 11.3182C14.125 11.7348 13.4394 12.0341 12.6818 12.2159V12.4432C13.5076 12.4886 14.2992 12.7424 15.0568 13.2045C15.822 13.6591 16.447 14.303 16.9318 15.1364C17.4167 15.9697 17.6591 16.9773 17.6591 18.1591C17.6591 19.3636 17.3674 20.447 16.7841 21.4091C16.2008 22.3636 15.322 23.1174 14.1477 23.6705C12.9735 24.2235 11.4962 24.5 9.71591 24.5H0.295455ZM4.51136 20.9773H9.04545C10.5758 20.9773 11.678 20.6856 12.3523 20.1023C13.0341 19.5114 13.375 18.7538 13.375 17.8295C13.375 17.1402 13.2045 16.5189 12.8636 15.9659C12.5227 15.4053 12.0379 14.9659 11.4091 14.6477C10.7803 14.322 10.0303 14.1591 9.15909 14.1591H4.51136V20.9773ZM4.51136 11.125H8.68182C9.40909 11.125 10.0644 10.9924 10.6477 10.7273C11.2311 10.4545 11.6894 10.072 12.0227 9.57955C12.3636 9.07955 12.5341 8.48864 12.5341 7.80682C12.5341 6.9053 12.2159 6.16288 11.5795 5.57954C10.9508 4.99621 10.0152 4.70454 8.77273 4.70454H4.51136V11.125ZM26.1676 24.8523C25.0616 24.8523 24.0653 24.6553 23.179 24.2614C22.3002 23.8598 21.6032 23.2689 21.0881 22.4886C20.5805 21.7083 20.3267 20.7462 20.3267 19.6023C20.3267 18.6174 20.5085 17.803 20.8722 17.1591C21.2358 16.5152 21.732 16 22.3608 15.6136C22.9896 15.2273 23.6979 14.9356 24.4858 14.7386C25.2813 14.5341 26.1032 14.3864 26.9517 14.2955C27.9744 14.1894 28.804 14.0947 29.4403 14.0114C30.0767 13.9205 30.5388 13.7841 30.8267 13.6023C31.1222 13.4129 31.2699 13.1212 31.2699 12.7273V12.6591C31.2699 11.803 31.0161 11.1402 30.5085 10.6705C30.0009 10.2008 29.2699 9.96591 28.3153 9.96591C27.3078 9.96591 26.5085 10.1856 25.9176 10.625C25.3343 11.0644 24.9403 11.5833 24.7358 12.1818L20.8949 11.6364C21.1979 10.5758 21.6979 9.68939 22.3949 8.97727C23.0919 8.25757 23.9441 7.7197 24.9517 7.36364C25.9593 7 27.0729 6.81818 28.2926 6.81818C29.1335 6.81818 29.9706 6.91667 30.804 7.11364C31.6373 7.31061 32.3987 7.63636 33.0881 8.09091C33.7775 8.53788 34.3305 9.14773 34.7472 9.92045C35.1714 10.6932 35.3835 11.6591 35.3835 12.8182V24.5H31.429V22.1023H31.2926C31.0426 22.5871 30.6903 23.0417 30.2358 23.4659C29.7888 23.8826 29.2244 24.2197 28.5426 24.4773C27.8684 24.7273 27.0767 24.8523 26.1676 24.8523ZM27.2358 21.8295C28.0616 21.8295 28.7775 21.6667 29.3835 21.3409C29.9896 21.0076 30.4555 20.5682 30.7812 20.0227C31.1146 19.4773 31.2812 18.8826 31.2812 18.2386V16.1818C31.1525 16.2879 30.9328 16.3864 30.6222 16.4773C30.3191 16.5682 29.9782 16.6477 29.5994 16.7159C29.2206 16.7841 28.8456 16.8447 28.4744 16.8977C28.1032 16.9508 27.7813 16.9962 27.5085 17.0341C26.8949 17.1174 26.3456 17.2538 25.8608 17.4432C25.3759 17.6326 24.9934 17.8977 24.7131 18.2386C24.4328 18.572 24.2926 19.0038 24.2926 19.5341C24.2926 20.2917 24.5691 20.8636 25.1222 21.25C25.6752 21.6364 26.3797 21.8295 27.2358 21.8295ZM43.6335 14.2727V24.5H39.5199V7.04545H43.4517V10.0114H43.6562C44.0578 9.03409 44.6979 8.25758 45.5767 7.68182C46.4631 7.10606 47.5578 6.81818 48.8608 6.81818C50.0653 6.81818 51.1146 7.07576 52.0085 7.59091C52.91 8.10606 53.607 8.85227 54.0994 9.82955C54.5994 10.8068 54.8456 11.9924 54.8381 13.3864V24.5H50.7244V14.0227C50.7244 12.8561 50.4214 11.9432 49.8153 11.2841C49.2169 10.625 48.3873 10.2955 47.3267 10.2955C46.607 10.2955 45.9669 10.4545 45.4062 10.7727C44.8532 11.0833 44.4176 11.5341 44.0994 12.125C43.7888 12.7159 43.6335 13.4318 43.6335 14.2727ZM66.6335 24.8409C64.8911 24.8409 63.3949 24.4583 62.1449 23.6932C60.9025 22.928 59.9441 21.8712 59.2699 20.5227C58.6032 19.1667 58.2699 17.6061 58.2699 15.8409C58.2699 14.0682 58.6108 12.5038 59.2926 11.1477C59.9744 9.78409 60.9366 8.72348 62.179 7.96591C63.429 7.20076 64.9063 6.81818 66.6108 6.81818C68.0275 6.81818 69.2813 7.07955 70.3722 7.60227C71.4706 8.11742 72.3456 8.84848 72.9972 9.79545C73.6487 10.7348 74.0199 11.8333 74.1108 13.0909H70.179C70.0199 12.25 69.6411 11.5492 69.0426 10.9886C68.4517 10.4205 67.66 10.1364 66.6676 10.1364C65.8267 10.1364 65.0881 10.3636 64.4517 10.8182C63.8153 11.2652 63.3191 11.9091 62.9631 12.75C62.6146 13.5909 62.4403 14.5985 62.4403 15.7727C62.4403 16.9621 62.6146 17.9848 62.9631 18.8409C63.3116 19.6894 63.8002 20.3447 64.429 20.8068C65.0653 21.2614 65.8116 21.4886 66.6676 21.4886C67.2737 21.4886 67.8153 21.375 68.2926 21.1477C68.7775 20.9129 69.1828 20.5758 69.5085 20.1364C69.8343 19.697 70.0578 19.1629 70.179 18.5341H74.1108C74.0123 19.7689 73.6487 20.8636 73.0199 21.8182C72.3911 22.7652 71.535 23.5076 70.4517 24.0455C69.3684 24.5758 68.0956 24.8409 66.6335 24.8409ZM85.1023 24.8409C83.3977 24.8409 81.9205 24.4659 80.6705 23.7159C79.4205 22.9659 78.4508 21.9167 77.7614 20.5682C77.0795 19.2197 76.7386 17.6439 76.7386 15.8409C76.7386 14.0379 77.0795 12.4583 77.7614 11.1023C78.4508 9.74621 79.4205 8.69318 80.6705 7.94318C81.9205 7.19318 83.3977 6.81818 85.1023 6.81818C86.8068 6.81818 88.2841 7.19318 89.5341 7.94318C90.7841 8.69318 91.75 9.74621 92.4318 11.1023C93.1212 12.4583 93.4659 14.0379 93.4659 15.8409C93.4659 17.6439 93.1212 19.2197 92.4318 20.5682C91.75 21.9167 90.7841 22.9659 89.5341 23.7159C88.2841 24.4659 86.8068 24.8409 85.1023 24.8409ZM85.125 21.5455C86.0492 21.5455 86.822 21.2917 87.4432 20.7841C88.0644 20.2689 88.5265 19.5795 88.8295 18.7159C89.1402 17.8523 89.2955 16.8902 89.2955 15.8295C89.2955 14.7614 89.1402 13.7955 88.8295 12.9318C88.5265 12.0606 88.0644 11.3674 87.4432 10.8523C86.822 10.3371 86.0492 10.0795 85.125 10.0795C84.178 10.0795 83.3902 10.3371 82.7614 10.8523C82.1402 11.3674 81.6742 12.0606 81.3636 12.9318C81.0606 13.7955 80.9091 14.7614 80.9091 15.8295C80.9091 16.8902 81.0606 17.8523 81.3636 18.7159C81.6742 19.5795 82.1402 20.2689 82.7614 20.7841C83.3902 21.2917 84.178 21.5455 85.125 21.5455ZM111.372 24.8068C110.001 24.8068 108.774 24.4545 107.69 23.75C106.607 23.0455 105.751 22.0227 105.122 20.6818C104.493 19.3409 104.179 17.7121 104.179 15.7955C104.179 13.8561 104.497 12.2197 105.134 10.8864C105.777 9.54545 106.645 8.53409 107.736 7.85227C108.827 7.16288 110.043 6.81818 111.384 6.81818C112.406 6.81818 113.247 6.99242 113.906 7.34091C114.565 7.68182 115.088 8.0947 115.474 8.57955C115.861 9.05682 116.16 9.50758 116.372 9.93182H116.543V1.22727H120.668V24.5H116.622V21.75H116.372C116.16 22.1742 115.853 22.625 115.452 23.1023C115.05 23.572 114.52 23.9735 113.861 24.3068C113.202 24.6402 112.372 24.8068 111.372 24.8068ZM112.52 21.4318C113.391 21.4318 114.134 21.197 114.747 20.7273C115.361 20.25 115.827 19.5871 116.145 18.7386C116.463 17.8902 116.622 16.9015 116.622 15.7727C116.622 14.6439 116.463 13.6629 116.145 12.8295C115.834 11.9962 115.372 11.3485 114.759 10.8864C114.152 10.4242 113.406 10.1932 112.52 10.1932C111.603 10.1932 110.838 10.4318 110.224 10.9091C109.611 11.3864 109.149 12.0455 108.838 12.8864C108.527 13.7273 108.372 14.6894 108.372 15.7727C108.372 16.8636 108.527 17.8371 108.838 18.6932C109.156 19.5417 109.622 20.2121 110.236 20.7045C110.857 21.1894 111.618 21.4318 112.52 21.4318ZM132.665 24.8409C130.96 24.8409 129.483 24.4659 128.233 23.7159C126.983 22.9659 126.013 21.9167 125.324 20.5682C124.642 19.2197 124.301 17.6439 124.301 15.8409C124.301 14.0379 124.642 12.4583 125.324 11.1023C126.013 9.74621 126.983 8.69318 128.233 7.94318C129.483 7.19318 130.96 6.81818 132.665 6.81818C134.369 6.81818 135.847 7.19318 137.097 7.94318C138.347 8.69318 139.313 9.74621 139.994 11.1023C140.684 12.4583 141.028 14.0379 141.028 15.8409C141.028 17.6439 140.684 19.2197 139.994 20.5682C139.313 21.9167 138.347 22.9659 137.097 23.7159C135.847 24.4659 134.369 24.8409 132.665 24.8409ZM132.688 21.5455C133.612 21.5455 134.384 21.2917 135.006 20.7841C135.627 20.2689 136.089 19.5795 136.392 18.7159C136.703 17.8523 136.858 16.8902 136.858 15.8295C136.858 14.7614 136.703 13.7955 136.392 12.9318C136.089 12.0606 135.627 11.3674 135.006 10.8523C134.384 10.3371 133.612 10.0795 132.688 10.0795C131.741 10.0795 130.953 10.3371 130.324 10.8523C129.703 11.3674 129.237 12.0606 128.926 12.9318C128.623 13.7955 128.472 14.7614 128.472 15.8295C128.472 16.8902 128.623 17.8523 128.926 18.7159C129.237 19.5795 129.703 20.2689 130.324 20.7841C130.953 21.2917 131.741 21.5455 132.688 21.5455ZM152.639 24.5V1.22727H161.548C163.23 1.22727 164.628 1.49242 165.741 2.02273C166.863 2.54545 167.7 3.26136 168.253 4.17045C168.813 5.07954 169.094 6.10985 169.094 7.26136C169.094 8.20833 168.912 9.01894 168.548 9.69318C168.185 10.3598 167.696 10.9015 167.082 11.3182C166.469 11.7348 165.783 12.0341 165.026 12.2159V12.4432C165.851 12.4886 166.643 12.7424 167.401 13.2045C168.166 13.6591 168.791 14.303 169.276 15.1364C169.76 15.9697 170.003 16.9773 170.003 18.1591C170.003 19.3636 169.711 20.447 169.128 21.4091C168.545 22.3636 167.666 23.1174 166.491 23.6705C165.317 24.2235 163.84 24.5 162.06 24.5H152.639ZM156.855 20.9773H161.389C162.92 20.9773 164.022 20.6856 164.696 20.1023C165.378 19.5114 165.719 18.7538 165.719 17.8295C165.719 17.1402 165.548 16.5189 165.207 15.9659C164.866 15.4053 164.382 14.9659 163.753 14.6477C163.124 14.322 162.374 14.1591 161.503 14.1591H156.855V20.9773ZM156.855 11.125H161.026C161.753 11.125 162.408 10.9924 162.991 10.7273C163.575 10.4545 164.033 10.072 164.366 9.57955C164.707 9.07955 164.878 8.48864 164.878 7.80682C164.878 6.9053 164.56 6.16288 163.923 5.57954C163.295 4.99621 162.359 4.70454 161.116 4.70454H156.855V11.125ZM173.489 24.5V7.04545H177.477V9.95455H177.659C177.977 8.94697 178.523 8.17045 179.295 7.625C180.076 7.07197 180.966 6.79545 181.966 6.79545C182.193 6.79545 182.447 6.80682 182.727 6.82954C183.015 6.8447 183.254 6.87121 183.443 6.90909V10.6932C183.269 10.6326 182.992 10.5795 182.614 10.5341C182.242 10.4811 181.883 10.4545 181.534 10.4545C180.784 10.4545 180.11 10.6174 179.511 10.9432C178.92 11.2614 178.455 11.7045 178.114 12.2727C177.773 12.8409 177.602 13.4962 177.602 14.2386V24.5H173.489ZM190.886 24.8523C189.78 24.8523 188.784 24.6553 187.898 24.2614C187.019 23.8598 186.322 23.2689 185.807 22.4886C185.299 21.7083 185.045 20.7462 185.045 19.6023C185.045 18.6174 185.227 17.803 185.591 17.1591C185.955 16.5152 186.451 16 187.08 15.6136C187.708 15.2273 188.417 14.9356 189.205 14.7386C190 14.5341 190.822 14.3864 191.67 14.2955C192.693 14.1894 193.523 14.0947 194.159 14.0114C194.795 13.9205 195.258 13.7841 195.545 13.6023C195.841 13.4129 195.989 13.1212 195.989 12.7273V12.6591C195.989 11.803 195.735 11.1402 195.227 10.6705C194.72 10.2008 193.989 9.96591 193.034 9.96591C192.027 9.96591 191.227 10.1856 190.636 10.625C190.053 11.0644 189.659 11.5833 189.455 12.1818L185.614 11.6364C185.917 10.5758 186.417 9.68939 187.114 8.97727C187.811 8.25757 188.663 7.7197 189.67 7.36364C190.678 7 191.792 6.81818 193.011 6.81818C193.852 6.81818 194.689 6.91667 195.523 7.11364C196.356 7.31061 197.117 7.63636 197.807 8.09091C198.496 8.53788 199.049 9.14773 199.466 9.92045C199.89 10.6932 200.102 11.6591 200.102 12.8182V24.5H196.148V22.1023H196.011C195.761 22.5871 195.409 23.0417 194.955 23.4659C194.508 23.8826 193.943 24.2197 193.261 24.4773C192.587 24.7273 191.795 24.8523 190.886 24.8523ZM191.955 21.8295C192.78 21.8295 193.496 21.6667 194.102 21.3409C194.708 21.0076 195.174 20.5682 195.5 20.0227C195.833 19.4773 196 18.8826 196 18.2386V16.1818C195.871 16.2879 195.652 16.3864 195.341 16.4773C195.038 16.5682 194.697 16.6477 194.318 16.7159C193.939 16.7841 193.564 16.8447 193.193 16.8977C192.822 16.9508 192.5 16.9962 192.227 17.0341C191.614 17.1174 191.064 17.2538 190.58 17.4432C190.095 17.6326 189.712 17.8977 189.432 18.2386C189.152 18.572 189.011 19.0038 189.011 19.5341C189.011 20.2917 189.288 20.8636 189.841 21.25C190.394 21.6364 191.098 21.8295 191.955 21.8295ZM218.034 11.6591L214.284 12.0682C214.178 11.6894 213.992 11.3333 213.727 11C213.47 10.6667 213.121 10.3977 212.682 10.1932C212.242 9.98864 211.705 9.88636 211.068 9.88636C210.212 9.88636 209.492 10.072 208.909 10.4432C208.333 10.8144 208.049 11.2955 208.057 11.8864C208.049 12.3939 208.235 12.8068 208.614 13.125C209 13.4432 209.636 13.7045 210.523 13.9091L213.5 14.5455C215.152 14.9015 216.379 15.4659 217.182 16.2386C217.992 17.0114 218.402 18.0227 218.409 19.2727C218.402 20.3712 218.08 21.3409 217.443 22.1818C216.814 23.0152 215.939 23.6667 214.818 24.1364C213.697 24.6061 212.409 24.8409 210.955 24.8409C208.818 24.8409 207.098 24.3939 205.795 23.5C204.492 22.5985 203.716 21.3447 203.466 19.7386L207.477 19.3523C207.659 20.1402 208.045 20.7348 208.636 21.1364C209.227 21.5379 209.996 21.7386 210.943 21.7386C211.92 21.7386 212.705 21.5379 213.295 21.1364C213.894 20.7348 214.193 20.2386 214.193 19.6477C214.193 19.1477 214 18.7348 213.614 18.4091C213.235 18.0833 212.644 17.8333 211.841 17.6591L208.864 17.0341C207.189 16.6856 205.951 16.0985 205.148 15.2727C204.345 14.4394 203.947 13.3864 203.955 12.1136C203.947 11.0379 204.239 10.1061 204.83 9.31818C205.428 8.52273 206.258 7.90909 207.318 7.47727C208.386 7.03788 209.617 6.81818 211.011 6.81818C213.057 6.81818 214.667 7.25379 215.841 8.125C217.023 8.99621 217.754 10.1742 218.034 11.6591ZM221.801 24.5V7.04545H225.915V24.5H221.801ZM223.869 4.56818C223.218 4.56818 222.657 4.35227 222.188 3.92045C221.718 3.48106 221.483 2.95454 221.483 2.34091C221.483 1.7197 221.718 1.19318 222.188 0.761362C222.657 0.321969 223.218 0.102272 223.869 0.102272C224.528 0.102272 225.089 0.321969 225.551 0.761362C226.021 1.19318 226.256 1.7197 226.256 2.34091C226.256 2.95454 226.021 3.48106 225.551 3.92045C225.089 4.35227 224.528 4.56818 223.869 4.56818ZM234.259 1.22727V24.5H230.145V1.22727H234.259Z" fill="#F3D901"/>
</svg>
