<svg width="689" height="375" viewBox="0 0 689 375" fill="none" xmlns="http://www.w3.org/2000/svg">
<g clip-path="url(#clip0_134_54)">
<path fill-rule="evenodd" clip-rule="evenodd" d="M344.53 26.9561L218.947 111.13L271.217 145.071L333.67 102.983L308.897 86.7105L342.829 63.9765L416.461 112.839L295.664 193.935L321.792 211.24L472.108 111.142L471.769 110.803L344.53 26.9561ZM469.765 26.9911L417.512 61.6018L443.639 79.2456L469.765 61.6018V26.9911ZM218.085 280.045L270.34 245.436L244.213 227.791L218.085 245.436V280.045Z" fill="#2A458B"/>
<path fill-rule="evenodd" clip-rule="evenodd" d="M344.47 279.974L470.052 195.799L417.783 161.857L355.332 203.945L380.102 220.218L346.171 242.953L272.54 194.09L393.335 112.995L367.209 95.6888L216.891 195.786L217.23 196.128L344.47 279.974Z" fill="#2A458B"/>
</g>
<path d="M139.939 361V320.273H155.53C158.473 320.273 160.919 320.737 162.868 321.665C164.83 322.58 166.295 323.832 167.263 325.423C168.244 327.014 168.734 328.817 168.734 330.832C168.734 332.49 168.416 333.908 167.78 335.088C167.143 336.255 166.288 337.203 165.214 337.932C164.141 338.661 162.941 339.185 161.615 339.503V339.901C163.06 339.98 164.446 340.424 165.771 341.233C167.11 342.028 168.204 343.155 169.053 344.614C169.901 346.072 170.325 347.835 170.325 349.903C170.325 352.011 169.815 353.907 168.794 355.591C167.773 357.261 166.235 358.58 164.18 359.548C162.125 360.516 159.54 361 156.425 361H139.939ZM147.317 354.835H155.251C157.929 354.835 159.858 354.325 161.038 353.304C162.232 352.27 162.828 350.944 162.828 349.327C162.828 348.12 162.53 347.033 161.933 346.065C161.337 345.084 160.488 344.315 159.388 343.759C158.287 343.188 156.975 342.903 155.45 342.903H147.317V354.835ZM147.317 337.594H154.615C155.888 337.594 157.035 337.362 158.055 336.898C159.076 336.42 159.878 335.751 160.462 334.889C161.058 334.014 161.357 332.98 161.357 331.787C161.357 330.209 160.8 328.91 159.686 327.889C158.586 326.868 156.948 326.358 154.774 326.358H147.317V337.594ZM185.215 361.616C183.28 361.616 181.536 361.272 179.985 360.582C178.447 359.88 177.228 358.846 176.326 357.48C175.438 356.115 174.994 354.431 174.994 352.429C174.994 350.705 175.312 349.28 175.948 348.153C176.585 347.027 177.453 346.125 178.553 345.449C179.654 344.773 180.893 344.262 182.272 343.918C183.664 343.56 185.103 343.301 186.587 343.142C188.377 342.956 189.829 342.791 190.942 342.645C192.056 342.486 192.865 342.247 193.369 341.929C193.886 341.598 194.144 341.087 194.144 340.398V340.278C194.144 338.78 193.7 337.62 192.812 336.798C191.924 335.976 190.644 335.565 188.974 335.565C187.21 335.565 185.812 335.95 184.778 336.719C183.757 337.488 183.067 338.396 182.71 339.443L175.988 338.489C176.518 336.633 177.393 335.081 178.613 333.835C179.833 332.576 181.324 331.634 183.087 331.011C184.851 330.375 186.799 330.057 188.934 330.057C190.406 330.057 191.871 330.229 193.329 330.574C194.787 330.919 196.12 331.489 197.326 332.284C198.532 333.066 199.5 334.134 200.229 335.486C200.972 336.838 201.343 338.528 201.343 340.557V361H194.423V356.804H194.184C193.746 357.652 193.13 358.448 192.335 359.19C191.552 359.92 190.565 360.509 189.371 360.96C188.192 361.398 186.806 361.616 185.215 361.616ZM187.085 356.327C188.53 356.327 189.782 356.042 190.843 355.472C191.904 354.888 192.719 354.119 193.289 353.165C193.872 352.21 194.164 351.17 194.164 350.043V346.443C193.939 346.629 193.554 346.801 193.011 346.96C192.48 347.119 191.884 347.259 191.221 347.378C190.558 347.497 189.902 347.603 189.252 347.696C188.603 347.789 188.039 347.868 187.562 347.935C186.488 348.08 185.527 348.319 184.678 348.651C183.83 348.982 183.16 349.446 182.67 350.043C182.179 350.626 181.934 351.382 181.934 352.31C181.934 353.635 182.418 354.636 183.386 355.312C184.353 355.989 185.586 356.327 187.085 356.327ZM215.781 343.102V361H208.582V330.455H215.462V335.645H215.82C216.523 333.935 217.643 332.576 219.181 331.568C220.732 330.561 222.648 330.057 224.928 330.057C227.036 330.057 228.872 330.508 230.437 331.409C232.014 332.311 233.234 333.616 234.096 335.327C234.971 337.037 235.402 339.112 235.388 341.551V361H228.19V342.665C228.19 340.623 227.659 339.026 226.599 337.872C225.551 336.719 224.1 336.142 222.244 336.142C220.984 336.142 219.864 336.42 218.883 336.977C217.915 337.521 217.153 338.31 216.596 339.344C216.052 340.378 215.781 341.631 215.781 343.102ZM256.031 361.597C252.981 361.597 250.363 360.927 248.175 359.588C246.001 358.249 244.324 356.4 243.144 354.04C241.978 351.667 241.394 348.936 241.394 345.847C241.394 342.744 241.991 340.007 243.184 337.634C244.377 335.247 246.061 333.391 248.235 332.065C250.423 330.726 253.008 330.057 255.991 330.057C258.47 330.057 260.664 330.514 262.573 331.429C264.496 332.33 266.027 333.61 267.167 335.267C268.307 336.911 268.957 338.833 269.116 341.034H262.235C261.957 339.562 261.294 338.336 260.246 337.355C259.212 336.361 257.827 335.864 256.09 335.864C254.619 335.864 253.326 336.261 252.212 337.057C251.099 337.839 250.23 338.966 249.607 340.438C248.997 341.909 248.692 343.672 248.692 345.727C248.692 347.809 248.997 349.598 249.607 351.097C250.217 352.581 251.072 353.728 252.173 354.537C253.286 355.332 254.592 355.73 256.09 355.73C257.151 355.73 258.099 355.531 258.934 355.134C259.782 354.723 260.492 354.133 261.062 353.364C261.632 352.595 262.023 351.66 262.235 350.56H269.116C268.943 352.721 268.307 354.636 267.207 356.307C266.106 357.964 264.608 359.263 262.712 360.205C260.817 361.133 258.589 361.597 256.031 361.597ZM288.351 361.597C285.368 361.597 282.783 360.94 280.595 359.628C278.408 358.315 276.711 356.479 275.504 354.119C274.311 351.759 273.714 349.002 273.714 345.847C273.714 342.691 274.311 339.927 275.504 337.554C276.711 335.181 278.408 333.338 280.595 332.026C282.783 330.713 285.368 330.057 288.351 330.057C291.334 330.057 293.919 330.713 296.107 332.026C298.294 333.338 299.984 335.181 301.178 337.554C302.384 339.927 302.987 342.691 302.987 345.847C302.987 349.002 302.384 351.759 301.178 354.119C299.984 356.479 298.294 358.315 296.107 359.628C293.919 360.94 291.334 361.597 288.351 361.597ZM288.391 355.83C290.008 355.83 291.36 355.385 292.447 354.497C293.535 353.596 294.343 352.389 294.874 350.878C295.417 349.366 295.689 347.683 295.689 345.827C295.689 343.957 295.417 342.267 294.874 340.756C294.343 339.231 293.535 338.018 292.447 337.116C291.36 336.215 290.008 335.764 288.391 335.764C286.733 335.764 285.355 336.215 284.254 337.116C283.167 338.018 282.352 339.231 281.808 340.756C281.278 342.267 281.013 343.957 281.013 345.827C281.013 347.683 281.278 349.366 281.808 350.878C282.352 352.389 283.167 353.596 284.254 354.497C285.355 355.385 286.733 355.83 288.391 355.83ZM334.323 361.537C331.924 361.537 329.776 360.92 327.88 359.688C325.984 358.455 324.486 356.665 323.386 354.318C322.285 351.972 321.735 349.121 321.735 345.767C321.735 342.373 322.292 339.509 323.406 337.176C324.532 334.83 326.05 333.06 327.96 331.866C329.869 330.66 331.996 330.057 334.343 330.057C336.133 330.057 337.604 330.362 338.758 330.972C339.911 331.568 340.826 332.291 341.502 333.139C342.178 333.974 342.702 334.763 343.073 335.506H343.371V320.273H350.59V361H343.511V356.188H343.073C342.702 356.93 342.165 357.719 341.462 358.554C340.76 359.376 339.832 360.079 338.678 360.662C337.525 361.245 336.073 361.537 334.323 361.537ZM336.332 355.631C337.856 355.631 339.156 355.22 340.229 354.398C341.303 353.562 342.119 352.402 342.675 350.918C343.232 349.433 343.511 347.703 343.511 345.727C343.511 343.752 343.232 342.035 342.675 340.577C342.132 339.118 341.323 337.985 340.249 337.176C339.189 336.367 337.883 335.963 336.332 335.963C334.728 335.963 333.388 336.381 332.315 337.216C331.241 338.051 330.432 339.205 329.888 340.676C329.345 342.148 329.073 343.831 329.073 345.727C329.073 347.636 329.345 349.34 329.888 350.838C330.445 352.323 331.261 353.496 332.335 354.358C333.422 355.206 334.754 355.631 336.332 355.631ZM371.585 361.597C368.602 361.597 366.017 360.94 363.83 359.628C361.642 358.315 359.945 356.479 358.739 354.119C357.545 351.759 356.949 349.002 356.949 345.847C356.949 342.691 357.545 339.927 358.739 337.554C359.945 335.181 361.642 333.338 363.83 332.026C366.017 330.713 368.602 330.057 371.585 330.057C374.568 330.057 377.153 330.713 379.341 332.026C381.528 333.338 383.219 335.181 384.412 337.554C385.618 339.927 386.222 342.691 386.222 345.847C386.222 349.002 385.618 351.759 384.412 354.119C383.219 356.479 381.528 358.315 379.341 359.628C377.153 360.94 374.568 361.597 371.585 361.597ZM371.625 355.83C373.242 355.83 374.595 355.385 375.682 354.497C376.769 353.596 377.578 352.389 378.108 350.878C378.652 349.366 378.923 347.683 378.923 345.827C378.923 343.957 378.652 342.267 378.108 340.756C377.578 339.231 376.769 338.018 375.682 337.116C374.595 336.215 373.242 335.764 371.625 335.764C369.968 335.764 368.589 336.215 367.489 337.116C366.402 338.018 365.586 339.231 365.043 340.756C364.512 342.267 364.247 343.957 364.247 345.827C364.247 347.683 364.512 349.366 365.043 350.878C365.586 352.389 366.402 353.596 367.489 354.497C368.589 355.385 369.968 355.83 371.625 355.83ZM406.54 361V320.273H422.131C425.075 320.273 427.521 320.737 429.469 321.665C431.432 322.58 432.897 323.832 433.864 325.423C434.845 327.014 435.336 328.817 435.336 330.832C435.336 332.49 435.018 333.908 434.381 335.088C433.745 336.255 432.89 337.203 431.816 337.932C430.742 338.661 429.542 339.185 428.217 339.503V339.901C429.662 339.98 431.047 340.424 432.373 341.233C433.712 342.028 434.806 343.155 435.654 344.614C436.503 346.072 436.927 347.835 436.927 349.903C436.927 352.011 436.416 353.907 435.396 355.591C434.375 357.261 432.837 358.58 430.782 359.548C428.727 360.516 426.142 361 423.026 361H406.54ZM413.918 354.835H421.853C424.531 354.835 426.46 354.325 427.64 353.304C428.833 352.27 429.43 350.944 429.43 349.327C429.43 348.12 429.131 347.033 428.535 346.065C427.938 345.084 427.09 344.315 425.989 343.759C424.889 343.188 423.576 342.903 422.052 342.903H413.918V354.835ZM413.918 337.594H421.217C422.489 337.594 423.636 337.362 424.657 336.898C425.678 336.42 426.48 335.751 427.063 334.889C427.66 334.014 427.958 332.98 427.958 331.787C427.958 330.209 427.401 328.91 426.288 327.889C425.187 326.868 423.55 326.358 421.376 326.358H413.918V337.594ZM443.027 361V330.455H450.007V335.545H450.325C450.882 333.782 451.837 332.423 453.189 331.469C454.554 330.501 456.112 330.017 457.862 330.017C458.26 330.017 458.704 330.037 459.195 330.077C459.698 330.103 460.116 330.15 460.447 330.216V336.838C460.143 336.732 459.659 336.639 458.996 336.56C458.346 336.467 457.716 336.42 457.107 336.42C455.794 336.42 454.614 336.705 453.567 337.276C452.533 337.832 451.717 338.608 451.121 339.602C450.524 340.597 450.226 341.743 450.226 343.043V361H443.027ZM473.473 361.616C471.537 361.616 469.794 361.272 468.243 360.582C466.705 359.88 465.485 358.846 464.584 357.48C463.696 356.115 463.251 354.431 463.251 352.429C463.251 350.705 463.57 349.28 464.206 348.153C464.842 347.027 465.711 346.125 466.811 345.449C467.911 344.773 469.151 344.262 470.53 343.918C471.922 343.56 473.36 343.301 474.845 343.142C476.635 342.956 478.087 342.791 479.2 342.645C480.314 342.486 481.123 342.247 481.626 341.929C482.143 341.598 482.402 341.087 482.402 340.398V340.278C482.402 338.78 481.958 337.62 481.07 336.798C480.181 335.976 478.902 335.565 477.232 335.565C475.468 335.565 474.07 335.95 473.036 336.719C472.015 337.488 471.325 338.396 470.967 339.443L464.246 338.489C464.776 336.633 465.651 335.081 466.871 333.835C468.09 332.576 469.582 331.634 471.345 331.011C473.108 330.375 475.057 330.057 477.192 330.057C478.663 330.057 480.128 330.229 481.587 330.574C483.045 330.919 484.377 331.489 485.584 332.284C486.79 333.066 487.758 334.134 488.487 335.486C489.23 336.838 489.601 338.528 489.601 340.557V361H482.68V356.804H482.442C482.004 357.652 481.388 358.448 480.592 359.19C479.81 359.92 478.822 360.509 477.629 360.96C476.449 361.398 475.064 361.616 473.473 361.616ZM475.342 356.327C476.787 356.327 478.04 356.042 479.101 355.472C480.161 354.888 480.977 354.119 481.547 353.165C482.13 352.21 482.422 351.17 482.422 350.043V346.443C482.196 346.629 481.812 346.801 481.268 346.96C480.738 347.119 480.142 347.259 479.479 347.378C478.816 347.497 478.16 347.603 477.51 347.696C476.86 347.789 476.297 347.868 475.82 347.935C474.746 348.08 473.785 348.319 472.936 348.651C472.088 348.982 471.418 349.446 470.928 350.043C470.437 350.626 470.192 351.382 470.192 352.31C470.192 353.635 470.676 354.636 471.643 355.312C472.611 355.989 473.844 356.327 475.342 356.327ZM520.982 338.528L514.419 339.244C514.233 338.581 513.909 337.958 513.445 337.375C512.994 336.792 512.384 336.321 511.615 335.963C510.846 335.605 509.905 335.426 508.791 335.426C507.293 335.426 506.034 335.751 505.013 336.401C504.005 337.05 503.508 337.892 503.521 338.926C503.508 339.814 503.833 340.537 504.496 341.094C505.172 341.651 506.286 342.108 507.837 342.466L513.047 343.58C515.937 344.203 518.085 345.19 519.49 346.543C520.909 347.895 521.625 349.665 521.638 351.852C521.625 353.775 521.061 355.472 519.947 356.943C518.847 358.402 517.316 359.542 515.354 360.364C513.392 361.186 511.138 361.597 508.592 361.597C504.854 361.597 501.844 360.814 499.564 359.25C497.284 357.672 495.925 355.478 495.487 352.668L502.507 351.991C502.825 353.37 503.501 354.411 504.536 355.114C505.57 355.816 506.915 356.168 508.572 356.168C510.283 356.168 511.655 355.816 512.689 355.114C513.736 354.411 514.26 353.543 514.26 352.509C514.26 351.634 513.922 350.911 513.246 350.341C512.583 349.771 511.549 349.333 510.143 349.028L504.933 347.935C502.003 347.325 499.836 346.297 498.43 344.852C497.025 343.394 496.329 341.551 496.342 339.324C496.329 337.441 496.839 335.811 497.874 334.432C498.921 333.04 500.373 331.966 502.229 331.21C504.098 330.441 506.252 330.057 508.692 330.057C512.271 330.057 515.089 330.819 517.143 332.344C519.212 333.868 520.491 335.93 520.982 338.528ZM527.574 361V330.455H534.773V361H527.574ZM531.193 326.119C530.053 326.119 529.072 325.741 528.25 324.986C527.428 324.217 527.017 323.295 527.017 322.222C527.017 321.134 527.428 320.213 528.25 319.457C529.072 318.688 530.053 318.304 531.193 318.304C532.347 318.304 533.328 318.688 534.136 319.457C534.958 320.213 535.369 321.134 535.369 322.222C535.369 323.295 534.958 324.217 534.136 324.986C533.328 325.741 532.347 326.119 531.193 326.119ZM549.374 320.273V361H542.175V320.273H549.374Z" fill="#2A458B"/>
<defs>
<clipPath id="clip0_134_54">
<rect width="307" height="307" fill="white" transform="translate(191)"/>
</clipPath>
</defs>
</svg>
