<svg width="52" height="52" viewBox="0 0 52 52" fill="none" xmlns="http://www.w3.org/2000/svg">
<g clip-path="url(#clip0_477_157)">
<path fill-rule="evenodd" clip-rule="evenodd" d="M26.0048 4.56586L4.73335 18.8233L13.587 24.5723L24.1652 17.4434L19.9692 14.6871L25.7167 10.8364L38.1885 19.1127L17.7277 32.8489L22.1533 35.78L47.614 18.8254L47.5565 18.768L26.0048 4.56586ZM47.2172 4.57179L38.3665 10.4342L42.7918 13.4227L47.2172 10.4342V4.57179ZM4.5874 47.4344L13.4383 41.5722L9.013 38.5835L4.5874 41.5722V47.4344Z" fill="#F3D901"/>
<path fill-rule="evenodd" clip-rule="evenodd" d="M25.9952 47.4222L47.2664 33.1646L38.4131 27.4155L27.8351 34.5444L32.0305 37.3007L26.2833 41.1517L13.8115 32.8751L34.2721 19.1392L29.8467 16.2078L4.38574 33.1624L4.4432 33.2204L25.9952 47.4222Z" fill="#F3D901"/>
</g>
<defs>
<clipPath id="clip0_477_157">
<rect width="52" height="52" fill="white"/>
</clipPath>
</defs>
</svg>
